<svg xmlns="http://www.w3.org/2000/svg" width="27" height="25" viewBox="0 0 27 25">
  <g id="Icon_feather-camera" data-name="Icon feather-camera" transform="translate(1.5 1.5)">
    <path id="Path_4" data-name="Path 4" d="M25.5,24.056A2.324,2.324,0,0,1,23.318,26.5H3.682A2.324,2.324,0,0,1,1.5,24.056V10.611A2.324,2.324,0,0,1,3.682,8.167H8.045L10.227,4.5h6.545l2.182,3.667h4.364A2.324,2.324,0,0,1,25.5,10.611Z" transform="translate(-1.5 -4.5)" fill="none" stroke="#131c61" stroke-linecap="round" stroke-linejoin="round" stroke-width="3"/>
    <path id="Path_5" data-name="Path 5" d="M24,19.5a6,6,0,1,1-6-6A6,6,0,0,1,24,19.5Z" transform="translate(-6 -5.9)" fill="none" stroke="#131c61" stroke-linecap="round" stroke-linejoin="round" stroke-width="3"/>
  </g>
</svg>
